
<svg width="164px" height="150px" viewBox="0 0 164 150" version="1.1" xmlns="http://www.w3.org/2000/svg" xmlns:xlink="http://www.w3.org/1999/xlink">
    <g id="Page-1" stroke="none" stroke-width="1" fill="none" fill-rule="evenodd">
        <g id="deaths" transform="translate(2.000000, 3.000000)" stroke="#FFFFFF" stroke-width="5">
            <path d="M0.816,60.221 L159.25,60.221 L159.25,38.342 L0.816,38.342 L0.816,60.221 Z M148.638,38.342 L11.429,38.342 L11.429,25.983 C11.429,20.725 15.691,16.463 20.948,16.463 L139.119,16.463 C144.376,16.463 148.638,20.725 148.638,25.983 L148.638,38.342 Z M54.533,16.463 L54.533,38.342 L54.533,16.463 Z M46.36,16.463 L19.602,16.463 C15.088,16.463 11.429,12.804 11.429,8.29 C11.429,3.776 15.088,0.117 19.602,0.117 L46.36,0.117 C50.874,0.117 54.533,3.776 54.533,8.29 C54.533,12.804 50.874,16.463 46.36,16.463 Z M31.117,127.417 L129.602,60.221 L31.117,127.417 Z M142.1,60.221 L35.089,133.224 L142.1,60.221 Z M35.296,135.17 C35.296,140.31 31.13,144.476 25.991,144.476 C20.853,144.476 16.687,140.31 16.687,135.17 C16.687,130.032 20.853,125.866 25.991,125.866 C31.13,125.866 35.296,130.032 35.296,135.17 Z M128.36,127.417 L85.988,98.503 L128.36,127.417 Z M124.389,133.224 L79.739,102.766 L124.389,133.224 Z M79.739,94.24 L29.875,60.221 L79.739,94.24 Z M73.49,98.503 L17.377,60.221 L73.49,98.503 Z M124.18,135.17 C124.18,140.31 128.346,144.476 133.485,144.476 C138.624,144.476 142.79,140.31 142.79,135.17 C142.79,130.032 138.624,125.866 133.485,125.866 C128.346,125.866 124.18,130.032 124.18,135.17 Z" id="Stroke-97"></path>
        </g>
    </g>
</svg>