
<svg width="164px" height="150px" viewBox="0 0 164 150" version="1.1" xmlns="http://www.w3.org/2000/svg" xmlns:xlink="http://www.w3.org/1999/xlink">
    <g id="Page-1" stroke="none" stroke-width="1" fill="none" fill-rule="evenodd" stroke-linecap="round" stroke-linejoin="round">
        <g id="133" transform="translate(-145.000000, -449.000000)" stroke="#0A090B" stroke-width="5">
            <path d="M147.816,512.221 L306.25,512.221 L306.25,490.342 L147.816,490.342 L147.816,512.221 Z M295.638,490.342 L158.429,490.342 L158.429,477.983 C158.429,472.725 162.691,468.463 167.948,468.463 L286.119,468.463 C291.376,468.463 295.638,472.725 295.638,477.983 L295.638,490.342 Z M201.533,468.463 L201.533,490.342 L201.533,468.463 Z M193.36,468.463 L166.602,468.463 C162.088,468.463 158.429,464.804 158.429,460.29 C158.429,455.776 162.088,452.117 166.602,452.117 L193.36,452.117 C197.874,452.117 201.533,455.776 201.533,460.29 C201.533,464.804 197.874,468.463 193.36,468.463 Z M178.117,579.417 L276.602,512.221 L178.117,579.417 Z M289.1,512.221 L182.089,585.224 L289.1,512.221 Z M182.296,587.17 C182.296,592.31 178.13,596.476 172.991,596.476 C167.853,596.476 163.687,592.31 163.687,587.17 C163.687,582.032 167.853,577.866 172.991,577.866 C178.13,577.866 182.296,582.032 182.296,587.17 Z M275.36,579.417 L232.988,550.503 L275.36,579.417 Z M271.389,585.224 L226.739,554.766 L271.389,585.224 Z M226.739,546.24 L176.875,512.221 L226.739,546.24 Z M220.49,550.503 L164.377,512.221 L220.49,550.503 Z M271.18,587.17 C271.18,592.31 275.346,596.476 280.485,596.476 C285.624,596.476 289.79,592.31 289.79,587.17 C289.79,582.032 285.624,577.866 280.485,577.866 C275.346,577.866 271.18,582.032 271.18,587.17 Z" id="Stroke-97"></path>
        </g>
    </g>
</svg>