
<svg width="144px" height="144px" viewBox="0 0 144 144" version="1.1" xmlns="http://www.w3.org/2000/svg" xmlns:xlink="http://www.w3.org/1999/xlink">
    <g id="Page-1" stroke="none" stroke-width="1" fill="none" fill-rule="evenodd">
        <g id="Desktop-HD" transform="translate(-647.000000, -440.000000)">
            <path d="M780.55,504.34 L768.6,504.34 C767.56,496.27 764.54,488.82 760.05,482.48 L768.14,474.39 C771.21,471.32 771.21,466.34 768.14,463.27 C765.07,460.2 760.09,460.2 757.02,463.27 L749.02,471.27 C742.69,466.64 735.2,463.5 727.07,462.36 L727.07,450.87 C727.07,446.52 723.55,443 719.21,443 C714.87,443 711.34,446.52 711.34,450.87 L711.34,462.7 C703.51,464.15 696.34,467.47 690.3,472.18 L681.4,463.27 C678.32,460.2 673.35,460.2 670.27,463.27 C667.2,466.34 667.2,471.32 670.27,474.39 L679.6,483.72 C675.58,489.78 672.89,496.79 671.92,504.34 L657.87,504.34 C653.53,504.34 650,507.86 650,512.21 C650,516.55 653.53,520.07 657.87,520.07 L672.42,520.07 C673.82,527.19 676.76,533.76 680.9,539.4 L670.27,550.02 C667.2,553.09 667.2,558.07 670.27,561.14 C673.35,564.21 678.32,564.21 681.4,561.14 L692.11,550.43 C697.75,554.43 704.28,557.26 711.34,558.56 L711.34,573.55 C711.34,577.89 714.87,581.41 719.21,581.41 C723.55,581.41 727.07,577.89 727.07,573.55 L727.07,558.91 C734.42,557.88 741.25,555.22 747.17,551.29 L757.02,561.14 C760.09,564.21 765.07,564.21 768.14,561.14 C771.21,558.07 771.21,553.09 768.14,550.02 L758.71,540.59 C763.32,534.69 766.6,527.7 768.09,520.07 L780.55,520.07 C784.89,520.07 788.41,516.55 788.41,512.21 C788.41,507.86 784.89,504.34 780.55,504.34 Z" id="Path" stroke="#0A090B" stroke-width="5" stroke-linecap="round" stroke-linejoin="round"></path>
            <path d="M720.07,525.84 C720.07,533.37 713.97,539.47 706.44,539.47 C698.91,539.47 692.81,533.37 692.81,525.84 C692.81,518.31 698.91,512.21 706.44,512.21 C713.97,512.21 720.07,518.31 720.07,525.84" id="Fill-54" fill="#0A090B"></path>
            <path d="M729.99,481.78 C732.65,484.45 732.65,488.76 729.99,491.42 C727.33,494.09 723.01,494.09 720.35,491.42 C717.69,488.76 717.69,484.45 720.35,481.78 C723.01,479.12 727.33,479.12 729.99,481.78" id="Fill-55" fill="#0A090B"></path>
            <path d="M751.45,512.21 C751.45,517.56 747.11,521.91 741.75,521.91 C736.4,521.91 732.05,517.56 732.05,512.21 C732.05,506.85 736.4,502.51 741.75,502.51 C747.11,502.51 751.45,506.85 751.45,512.21" id="Fill-56" fill="#0A090B"></path>
        </g>
    </g>
</svg>