
<svg width="144px" height="144px" viewBox="0 0 144 144" version="1.1" xmlns="http://www.w3.org/2000/svg" xmlns:xlink="http://www.w3.org/1999/xlink">
    <g id="Page-1" stroke="none" stroke-width="1" fill="none" fill-rule="evenodd">
        <g id="hospital" transform="translate(3.000000, 3.000000)">
            <path d="M130.55,61.34 L118.6,61.34 C117.56,53.27 114.54,45.82 110.05,39.48 L118.14,31.39 C121.21,28.32 121.21,23.34 118.14,20.27 C115.07,17.2 110.09,17.2 107.02,20.27 L99.02,28.27 C92.69,23.64 85.2,20.5 77.07,19.36 L77.07,7.87 C77.07,3.52 73.55,0 69.21,0 C64.87,0 61.34,3.52 61.34,7.87 L61.34,19.7 C53.51,21.15 46.34,24.47 40.3,29.18 L31.4,20.27 C28.32,17.2 23.35,17.2 20.27,20.27 C17.2,23.34 17.2,28.32 20.27,31.39 L29.6,40.72 C25.58,46.78 22.89,53.79 21.92,61.34 L7.87,61.34 C3.53,61.34 0,64.86 0,69.21 C0,73.55 3.53,77.07 7.87,77.07 L22.42,77.07 C23.82,84.19 26.76,90.76 30.9,96.4 L20.27,107.02 C17.2,110.09 17.2,115.07 20.27,118.14 C23.35,121.21 28.32,121.21 31.4,118.14 L42.11,107.43 C47.75,111.43 54.28,114.26 61.34,115.56 L61.34,130.55 C61.34,134.89 64.87,138.41 69.21,138.41 C73.55,138.41 77.07,134.89 77.07,130.55 L77.07,115.91 C84.42,114.88 91.25,112.22 97.17,108.29 L107.02,118.14 C110.09,121.21 115.07,121.21 118.14,118.14 C121.21,115.07 121.21,110.09 118.14,107.02 L108.71,97.59 C113.32,91.69 116.6,84.7 118.09,77.07 L130.55,77.07 C134.89,77.07 138.41,73.55 138.41,69.21 C138.41,64.86 134.89,61.34 130.55,61.34 Z" id="Path" stroke="#FFFFFF" stroke-width="5" stroke-linecap="round" stroke-linejoin="round"></path>
            <path d="M70.07,82.84 C70.07,90.37 63.97,96.47 56.44,96.47 C48.91,96.47 42.81,90.37 42.81,82.84 C42.81,75.31 48.91,69.21 56.44,69.21 C63.97,69.21 70.07,75.31 70.07,82.84" id="Fill-54" fill="#FFFFFF" fill-rule="nonzero"></path>
            <path d="M79.99,38.78 C82.65,41.45 82.65,45.76 79.99,48.42 C77.33,51.09 73.01,51.09 70.35,48.42 C67.69,45.76 67.69,41.45 70.35,38.78 C73.01,36.12 77.33,36.12 79.99,38.78" id="Fill-55" fill="#FFFFFF" fill-rule="nonzero"></path>
            <path d="M101.45,69.21 C101.45,74.56 97.11,78.91 91.75,78.91 C86.4,78.91 82.05,74.56 82.05,69.21 C82.05,63.85 86.4,59.51 91.75,59.51 C97.11,59.51 101.45,63.85 101.45,69.21" id="Fill-56" fill="#FFFFFF" fill-rule="nonzero"></path>
        </g>
    </g>
</svg>