<svg height="144" viewBox="0 0 144 144" width="144" xmlns="http://www.w3.org/2000/svg"><g fill="none" fill-rule="evenodd" transform="translate(3 3)"><path d="m130.55 61.34h-11.95c-1.04-8.07-4.06-15.52-8.55-21.86l8.09-8.09c3.07-3.07 3.07-8.05 0-11.12s-8.05-3.07-11.12 0l-8 8c-6.33-4.63-13.82-7.77-21.95-8.91v-11.49c0-4.35-3.52-7.87-7.86-7.87s-7.87 3.52-7.87 7.87v11.83c-7.83 1.45-15 4.77-21.04 9.48l-8.9-8.91c-3.08-3.07-8.05-3.07-11.13 0-3.07 3.07-3.07 8.05 0 11.12l9.33 9.33c-4.02 6.06-6.71 13.07-7.68 20.62h-14.05c-4.34 0-7.87 3.52-7.87 7.87 0 4.34 3.53 7.86 7.87 7.86h14.55c1.4 7.12 4.34 13.69 8.48 19.33l-10.63 10.62c-3.07 3.07-3.07 8.05 0 11.12 3.08 3.07 8.05 3.07 11.13 0l10.71-10.71c5.64 4 12.17 6.83 19.23 8.13v14.99c0 4.34 3.53 7.86 7.87 7.86s7.86-3.52 7.86-7.86v-14.64c7.35-1.03 14.18-3.69 20.1-7.62l9.85 9.85c3.07 3.07 8.05 3.07 11.12 0s3.07-8.05 0-11.12l-9.43-9.43c4.61-5.9 7.89-12.89 9.38-20.52h12.46c4.34 0 7.86-3.52 7.86-7.86 0-4.35-3.52-7.87-7.86-7.87z" stroke="#fff" stroke-linecap="round" stroke-linejoin="round" stroke-width="5"/><g fill="#fff" fill-rule="nonzero"><path d="m70.07 82.84c0 7.53-6.1 13.63-13.63 13.63s-13.63-6.1-13.63-13.63 6.1-13.63 13.63-13.63 13.63 6.1 13.63 13.63"/><path d="m79.99 38.78c2.66 2.67 2.66 6.98 0 9.64-2.66 2.67-6.98 2.67-9.64 0-2.66-2.66-2.66-6.97 0-9.64 2.66-2.66 6.98-2.66 9.64 0"/><path d="m101.45 69.21c0 5.35-4.34 9.7-9.7 9.7-5.35 0-9.7-4.35-9.7-9.7 0-5.36 4.35-9.7 9.7-9.7 5.36 0 9.7 4.34 9.7 9.7"/></g></g></svg>