<svg height="150" viewBox="0 0 164 150" width="164" xmlns="http://www.w3.org/2000/svg"><path d="m.816 60.221h158.434v-21.879h-158.434zm147.822-21.879h-137.209v-12.359c0-5.258 4.262-9.52 9.519-9.52h118.171c5.257 0 9.519 4.262 9.519 9.52zm-94.105-21.879v21.879zm-8.173 0h-26.758c-4.514 0-8.173-3.659-8.173-8.173s3.659-8.173 8.173-8.173h26.758c4.514 0 8.173 3.659 8.173 8.173s-3.659 8.173-8.173 8.173zm-15.243 110.954 98.485-67.196zm110.983-67.196-107.011 73.003zm-106.804 74.949c0 5.14-4.166 9.306-9.305 9.306-5.138 0-9.304-4.166-9.304-9.306 0-5.138 4.166-9.304 9.304-9.304 5.139 0 9.305 4.166 9.305 9.304zm93.064-7.753-42.372-28.914zm-3.971 5.807-44.65-30.458zm-44.65-38.984-49.864-34.019zm-6.249 4.263-56.113-38.282zm50.69 36.667c0 5.14 4.166 9.306 9.305 9.306s9.305-4.166 9.305-9.306c0-5.138-4.166-9.304-9.305-9.304s-9.305 4.166-9.305 9.304z" fill="none" stroke="#fff" stroke-width="5" transform="translate(2 3)"/></svg>