<svg height="151" viewBox="0 0 216 151" width="216" xmlns="http://www.w3.org/2000/svg"><g fill="none" fill-rule="evenodd" transform="translate(3)"><g stroke="#fff" stroke-linecap="round" stroke-linejoin="round" stroke-width="5"><path d="m11.534 147.94c-6.37 0-11.534-5.17-11.534-11.54v-93.6c0-6.37 5.164-11.54 11.534-11.54s11.534 5.17 11.534 11.54v93.6c0 6.37-5.164 11.54-11.534 11.54z"/><path d="m23.068 121.64h164.971v-29.04h-164.971z"/><path d="m199.183 147.94c-6.155 0-11.144-4.99-11.144-11.15v-53.2c0-6.16 4.989-11.15 11.144-11.15s11.144 4.99 11.144 11.15v53.2c0 6.16-4.989 11.15-11.144 11.15z"/><path d="m62.506 89.6h-30.293c-4.086 0-7.397-3.31-7.397-7.4 0-4.08 3.311-7.39 7.397-7.39h30.293c4.085 0 7.397 3.31 7.397 7.39 0 4.09-3.312 7.4-7.397 7.4z"/></g><path d="m161.094 23.58h-23.584v-23.58h-15.362v23.58h-23.585v15.36h23.585v23.59h15.362v-23.59h23.584z" fill="#fff"/></g></svg>